<svg
   xmlns:svg="http://www.w3.org/2000/svg"
   xmlns="http://www.w3.org/2000/svg"
   width="191"
   height="22.962"
   viewBox="0 0 0.1790625 0.021526875"
   version="1.1">
<g style="fill:#ffffff"
   transform="scale(9.3750004e-4,9.3750004e-4)">
<path
   d="M 0,1.476 Q 0,0.82 0.36,0.426 0.755,0 1.477,0 L 3.15,0 q 1.508,0 1.508,1.804 l 0,6.986 q 0,4.2 0.525,4.92 0.984,2.46 3.542,3.84 1.247,0.753 4.855,0.753 l 11.644,0 q 0.624,0 1.05,0.394 0.426,0.36 0.426,1.082 l 0,1.705 q 0,0.623 -0.393,1.05 -0.36,0.426 -1.083,0.426 l -14.07,0 q -5.12,0 -8.66,-4.1 Q 0,15.746 0,11.81 L 0,1.475 Z M 44.072,0 q 5.675,0 9.315,4.953 1.837,2.92 1.837,6.1 l 0,0.854 q 0,5.314 -4.592,8.955 -3.018,2.1 -6.527,2.1 l -6.43,0 q -5.116,0 -8.66,-4.1 -2.492,-3.117 -2.492,-7.053 l 0,-0.657 q 0,-5.118 4.1,-8.66 Q 33.74,0 37.676,0 l 6.396,0 z M 31.246,11.48 q 0,2.92 2.756,5.314 1.804,1.51 5.412,1.51 l 1.74,0 q 4.197,0 5.017,-0.624 2.264,-0.95 3.577,-3.313 0.72,-1.476 0.72,-2.952 0,-3.018 -2.918,-5.412 -1.74,-1.378 -5.348,-1.378 l -1.64,0 q -4.1,0 -4.92,0.59 -1.05,0.296 -2.624,1.837 -1.772,2.23 -1.772,4.43 z M 54.84,1.476 Q 54.84,0.82 55.2,0.426 55.595,0 56.317,0 l 23.748,0 q 0.656,0 1.05,0.394 0.426,0.36 0.426,1.082 l 0,1.674 q 0,0.622 -0.393,1.05 -0.36,0.425 -1.083,0.425 l -6.626,0 q -2.328,0 -2.624,0.886 -0.164,0.263 -0.23,0.788 -0.065,0.525 -0.065,1.28 l 0,13.907 q 0,0.623 -0.395,1.05 -0.36,0.426 -1.082,0.426 l -1.706,0 q -0.656,0 -1.082,-0.36 -0.394,-0.36 -0.394,-1.115 l 0,-13.91 q 0,-2.33 -0.852,-2.624 -0.524,-0.328 -2.066,-0.328 l -6.626,0 q -0.623,0 -1.05,-0.36 -0.426,-0.394 -0.426,-1.116 l 0,-1.674 z M 94.9,22.96 q -0.655,0 -1.08,-0.36 -0.395,-0.393 -0.395,-1.115 l 0,-6.068 q 0,-2.592 -0.59,-3.248 Q 92.277,11.316 86.111,4.559 86.013,4.394 83.815,1.934 83.095,1.214 83.095,0.654 83.093,0.1 84.11,0 l 3.51,0 q 1.574,0 2.788,1.706 2.066,2.263 3.116,3.444 1.05,1.18 1.18,1.28 0.59,0.393 1.05,0.393 1.017,0 2.624,-2.1 2.788,-3.18 4.035,-4.33 Q 103.135,0 103.923,0 l 3.41,0 q 1.05,0 1.05,0.722 l 0,0.032 q 0,0.558 -1.575,2.165 -3.673,4.1 -5.642,6.33 -1.968,2.198 -2.296,2.624 -0.787,0.69 -0.787,3.477 l 0,6.135 q 0,0.623 -0.36,1.05 -0.362,0.426 -1.083,0.426 l -1.74,0 z M 110,1.476 Q 110,0.82 110.36,0.426 110.755,0 111.476,0 l 1.673,0 q 1.508,0 1.508,1.804 l 0,6.986 q 0,4.2 0.525,4.92 0.984,2.46 3.543,3.84 1.246,0.753 4.854,0.753 l 11.645,0 q 0.623,0 1.05,0.394 0.426,0.36 0.426,1.082 l 0,1.705 q 0,0.623 -0.393,1.05 -0.36,0.426 -1.082,0.426 l -14.072,0 q -5.117,0 -8.66,-4.1 Q 110,15.746 110,11.81 l 0,-10.335 z m 28.253,0 q 0,-0.656 0.36,-1.05 Q 139.01,0 139.73,0 l 14.07,0 q 5.676,0 9.317,4.953 1.837,2.92 1.837,6.1 l 0,0.854 q 0,5.314 -4.56,8.955 -3.018,2.1 -6.56,2.1 l -14.104,0 q -0.657,0 -1.083,-0.362 -0.394,-0.393 -0.394,-1.115 l 0,-12.105 q 0,-0.655 0.36,-1.048 0.395,-0.394 1.116,-0.394 l 1.705,0 q 0.623,0 1.05,0.36 0.426,0.362 0.426,1.083 l 0,6.004 q 0,2.33 0.854,2.624 0.262,0.164 0.787,0.23 0.526,0.065 1.28,0.065 l 5.085,0 q 4.297,0 5.084,-0.656 2.13,-0.885 3.443,-3.182 0.787,-1.476 0.787,-3.05 0,-3.018 -2.92,-5.412 -1.738,-1.378 -5.38,-1.378 l -12.2,0 q -0.624,0 -1.05,-0.36 -0.427,-0.394 -0.427,-1.116 l 0,-1.675 z M 178.896,0 q 1.608,0 2.296,1.837 4.724,9.512 7.15,14.465 2.428,4.92 2.592,5.347 0.066,0.196 0.066,0.327 l 0,0.164 q -0.13,0.82 -1.115,0.82 l -2.428,0 q -1.574,0 -2.46,-2.393 -2.755,-5.577 -4.33,-8.726 -1.574,-3.148 -2.033,-4 -0.558,-0.69 -0.92,-0.69 l -0.294,0 q -0.885,0 -2.198,3.15 l -5.773,11.644 q -0.722,1.017 -1.805,1.017 l -2.394,0 q -0.786,0 -1.082,-0.59 l -0.032,-0.23 0,-0.163 q 0,-0.492 1.28,-2.92 3.77,-7.708 6.002,-12.17 2.23,-4.492 2.952,-5.903 0.623,-0.984 1.87,-0.984 l 2.656,0 z"
/>
</g>
</svg>
